<?xml version="1.0" standalone="no"?>
<!DOCTYPE svg PUBLIC "-//W3C//DTD SVG 20010904//EN"
 "http://www.w3.org/TR/2001/REC-SVG-20010904/DTD/svg10.dtd">
<svg version="1.0" xmlns="http://www.w3.org/2000/svg"
 width="1000.000000pt" height="1000.000000pt" viewBox="0 0 1000.000000 1000.000000"
 preserveAspectRatio="xMidYMid meet">

<g transform="translate(0.000000,1000.000000) scale(0.100000,-0.100000)"
fill="#000000" stroke="none">
<path d="M1238 6761 c-81 -4 -150 -9 -153 -13 -15 -15 88 -276 185 -468 195
-383 435 -672 748 -898 113 -81 348 -199 489 -245 407 -132 863 -124 1371 24
138 40 390 133 406 149 28 28 -111 335 -221 489 -393 547 -1095 870 -2068 950
-165 14 -579 21 -757 12z"/>
<path d="M8210 6764 c-462 -21 -830 -82 -1165 -190 -603 -196 -1043 -540
-1264 -989 -64 -129 -109 -261 -95 -275 5 -5 68 -32 141 -59 416 -159 848
-232 1188 -202 275 25 472 81 705 198 337 169 613 429 847 796 86 136 219 404
270 547 61 169 60 156 16 163 -47 7 -541 16 -643 11z"/>
<path d="M2881 4124 c-105 -185 -189 -339 -187 -343 3 -4 349 -202 770 -441
421 -239 765 -437 765 -440 0 -3 -340 -198 -756 -435 -416 -236 -763 -435
-771 -441 -13 -9 14 -63 177 -348 106 -185 196 -334 199 -332 4 2 443 252 975
555 l969 552 101 -57 c56 -32 487 -277 957 -544 470 -268 865 -492 877 -498
21 -11 30 2 214 325 163 285 190 338 177 347 -8 6 -355 205 -771 441 -416 237
-756 433 -754 437 1 4 342 201 757 438 415 237 758 434 763 439 4 4 -78 160
-184 345 l-191 336 -32 -19 c-17 -10 -455 -260 -972 -555 l-942 -536 -968 551
c-533 303 -972 553 -975 555 -3 2 -92 -148 -198 -332z"/>
</g>
</svg>
